<svg width="24" height="24" viewBox="0 0 24 24" fill="none" xmlns="http://www.w3.org/2000/svg">
<path fill-rule="evenodd" clip-rule="evenodd" d="M3.29289 2.29289C3.68342 1.90237 4.31658 1.90237 4.70711 2.29289L5.70711 3.29289C6.09763 3.68342 6.09763 4.31658 5.70711 4.70711L4.70711 5.70711C4.31658 6.09763 3.68342 6.09763 3.29289 5.70711L2.29289 4.70711C2.00689 4.42111 1.92134 3.99099 2.07612 3.61732C2.1368 3.47082 2.22973 3.34431 2.34467 3.24464C2.36006 3.22691 2.37613 3.20965 2.39289 3.19289L3.29289 2.29289ZM12 2C12.2652 2 12.5196 2.10536 12.7071 2.29289L13.7071 3.29289C14.0976 3.68342 14.0976 4.31658 13.7071 4.70711L12.7071 5.70711C12.3166 6.09763 11.6834 6.09763 11.2929 5.70711L10.2929 4.70711C10.0069 4.42111 9.92134 3.99099 10.0761 3.61732C10.1368 3.47082 10.2297 3.34431 10.3447 3.24463C10.3601 3.22691 10.3761 3.20965 10.3929 3.19289L11.2929 2.29289C11.4804 2.10536 11.7348 2 12 2ZM20 2C20.2652 2 20.5196 2.10536 20.7071 2.29289L21.7071 3.29289C22.0976 3.68342 22.0976 4.31658 21.7071 4.70711L20.7071 5.70711C20.3166 6.09763 19.6834 6.09763 19.2929 5.70711L18.2929 4.70711C18.0069 4.42111 17.9213 3.99099 18.0761 3.61732C18.1368 3.47082 18.2297 3.34431 18.3447 3.24463C18.3601 3.22691 18.3761 3.20965 18.3929 3.19289L19.2929 2.29289C19.4804 2.10536 19.7348 2 20 2ZM2.34467 11.2446C2.22973 11.3443 2.1368 11.4708 2.07612 11.6173C1.92134 11.991 2.00689 12.4211 2.29289 12.7071L3.29289 13.7071C3.68342 14.0976 4.31658 14.0976 4.70711 13.7071L5.70711 12.7071C6.09763 12.3166 6.09763 11.6834 5.70711 11.2929L4.70711 10.2929C4.31658 9.90237 3.68342 9.90237 3.29289 10.2929L2.39289 11.1929C2.37613 11.2097 2.36006 11.2269 2.34467 11.2446ZM11.2929 10.2929C11.6834 9.90237 12.3166 9.90237 12.7071 10.2929L13.7071 11.2929C14.0976 11.6834 14.0976 12.3166 13.7071 12.7071L12.7071 13.7071C12.3166 14.0976 11.6834 14.0976 11.2929 13.7071L10.2929 12.7071C10.0069 12.4211 9.92134 11.991 10.0761 11.6173C10.1368 11.4708 10.2297 11.3443 10.3447 11.2446C10.3601 11.2269 10.3761 11.2097 10.3929 11.1929L11.2929 10.2929ZM19.2929 10.2929C19.6834 9.90237 20.3166 9.90237 20.7071 10.2929L21.7071 11.2929C22.0976 11.6834 22.0976 12.3166 21.7071 12.7071L20.7071 13.7071C20.3166 14.0976 19.6834 14.0976 19.2929 13.7071L18.2929 12.7071C18.0069 12.4211 17.9213 11.991 18.0761 11.6173C18.1368 11.4708 18.2297 11.3443 18.3447 11.2446C18.3601 11.2269 18.3761 11.2097 18.3929 11.1929L19.2929 10.2929ZM2.34467 19.2446C2.22973 19.3443 2.1368 19.4708 2.07612 19.6173C1.92134 19.991 2.00689 20.4211 2.29289 20.7071L3.29289 21.7071C3.68342 22.0976 4.31658 22.0976 4.70711 21.7071L5.70711 20.7071C6.09763 20.3166 6.09763 19.6834 5.70711 19.2929L4.70711 18.2929C4.31658 17.9024 3.68342 17.9024 3.29289 18.2929L2.39289 19.1929C2.37613 19.2097 2.36005 19.2269 2.34467 19.2446ZM11.2929 18.2929C11.6834 17.9024 12.3166 17.9024 12.7071 18.2929L13.7071 19.2929C14.0976 19.6834 14.0976 20.3166 13.7071 20.7071L12.7071 21.7071C12.3166 22.0976 11.6834 22.0976 11.2929 21.7071L10.2929 20.7071C10.0069 20.4211 9.92134 19.991 10.0761 19.6173C10.1368 19.4708 10.2297 19.3443 10.3447 19.2446C10.3601 19.2269 10.3761 19.2097 10.3929 19.1929L11.2929 18.2929ZM19.2929 18.2929C19.6834 17.9024 20.3166 17.9024 20.7071 18.2929L21.7071 19.2929C22.0976 19.6834 22.0976 20.3166 21.7071 20.7071L20.7071 21.7071C20.3166 22.0976 19.6834 22.0976 19.2929 21.7071L18.2929 20.7071C18.0069 20.4211 17.9213 19.991 18.0761 19.6173C18.1368 19.4708 18.2297 19.3443 18.3447 19.2446C18.3601 19.2269 18.3761 19.2097 18.3929 19.1929L19.2929 18.2929Z" fill="white"/>
</svg>
