<svg width="24" height="24" viewBox="0 0 24 24" fill="none" xmlns="http://www.w3.org/2000/svg">
<path fill-rule="evenodd" clip-rule="evenodd" d="M3.29292 2.29289C3.68345 1.90237 4.31661 1.90237 4.70714 2.29289L5.70714 3.29289C6.09766 3.68342 6.09766 4.31658 5.70714 4.70711L4.70714 5.70711C4.31661 6.09763 3.68345 6.09763 3.29292 5.70711L2.29292 4.70711C2.00692 4.42111 1.92137 3.99099 2.07615 3.61732C2.13683 3.47082 2.22976 3.34431 2.3447 3.24464C2.36009 3.22691 2.37616 3.20965 2.39292 3.19289L3.29292 2.29289ZM12 2C12.2652 2 12.5196 2.10536 12.7071 2.29289L13.7071 3.29289C14.0977 3.68342 14.0977 4.31658 13.7071 4.70711L12.7071 5.70711C12.3166 6.09763 11.6834 6.09763 11.2929 5.70711L10.2929 4.70711C10.0069 4.42111 9.92137 3.99099 10.0761 3.61732C10.1368 3.47082 10.2298 3.34431 10.3447 3.24463C10.3601 3.22691 10.3762 3.20965 10.3929 3.19289L11.2929 2.29289C11.4805 2.10536 11.7348 2 12 2ZM20 2C20.2652 2 20.5196 2.10536 20.7071 2.29289L21.7071 3.29289C22.0977 3.68342 22.0977 4.31658 21.7071 4.70711L20.7071 5.70711C20.3166 6.09763 19.6834 6.09763 19.2929 5.70711L18.2929 4.70711C18.0069 4.42111 17.9214 3.99099 18.0761 3.61732C18.1368 3.47082 18.2298 3.34431 18.3447 3.24463C18.3601 3.22691 18.3762 3.20965 18.3929 3.19289L19.2929 2.29289C19.4805 2.10536 19.7348 2 20 2ZM2.3447 11.2446C2.22976 11.3443 2.13683 11.4708 2.07615 11.6173C1.92137 11.991 2.00692 12.4211 2.29292 12.7071L3.29292 13.7071C3.68345 14.0976 4.31661 14.0976 4.70714 13.7071L5.70714 12.7071C6.09766 12.3166 6.09766 11.6834 5.70714 11.2929L4.70714 10.2929C4.31661 9.90237 3.68345 9.90237 3.29292 10.2929L2.39292 11.1929C2.37616 11.2097 2.36009 11.2269 2.3447 11.2446ZM11.2929 10.2929C11.6834 9.90237 12.3166 9.90237 12.7071 10.2929L13.7071 11.2929C14.0977 11.6834 14.0977 12.3166 13.7071 12.7071L12.7071 13.7071C12.3166 14.0976 11.6834 14.0976 11.2929 13.7071L10.2929 12.7071C10.0069 12.4211 9.92137 11.991 10.0761 11.6173C10.1368 11.4708 10.2298 11.3443 10.3447 11.2446C10.3601 11.2269 10.3762 11.2097 10.3929 11.1929L11.2929 10.2929ZM19.2929 10.2929C19.6834 9.90237 20.3166 9.90237 20.7071 10.2929L21.7071 11.2929C22.0977 11.6834 22.0977 12.3166 21.7071 12.7071L20.7071 13.7071C20.3166 14.0976 19.6834 14.0976 19.2929 13.7071L18.2929 12.7071C18.0069 12.4211 17.9214 11.991 18.0761 11.6173C18.1368 11.4708 18.2298 11.3443 18.3447 11.2446C18.3601 11.2269 18.3762 11.2097 18.3929 11.1929L19.2929 10.2929ZM2.3447 19.2446C2.22976 19.3443 2.13683 19.4708 2.07615 19.6173C1.92137 19.991 2.00692 20.4211 2.29292 20.7071L3.29292 21.7071C3.68345 22.0976 4.31661 22.0976 4.70714 21.7071L5.70714 20.7071C6.09766 20.3166 6.09766 19.6834 5.70714 19.2929L4.70714 18.2929C4.31661 17.9024 3.68345 17.9024 3.29292 18.2929L2.39292 19.1929C2.37616 19.2097 2.36008 19.2269 2.3447 19.2446ZM11.2929 18.2929C11.6834 17.9024 12.3166 17.9024 12.7071 18.2929L13.7071 19.2929C14.0977 19.6834 14.0977 20.3166 13.7071 20.7071L12.7071 21.7071C12.3166 22.0976 11.6834 22.0976 11.2929 21.7071L10.2929 20.7071C10.0069 20.4211 9.92137 19.991 10.0761 19.6173C10.1368 19.4708 10.2298 19.3443 10.3447 19.2446C10.3601 19.2269 10.3762 19.2097 10.3929 19.1929L11.2929 18.2929ZM19.2929 18.2929C19.6834 17.9024 20.3166 17.9024 20.7071 18.2929L21.7071 19.2929C22.0977 19.6834 22.0977 20.3166 21.7071 20.7071L20.7071 21.7071C20.3166 22.0976 19.6834 22.0976 19.2929 21.7071L18.2929 20.7071C18.0069 20.4211 17.9214 19.991 18.0761 19.6173C18.1368 19.4708 18.2298 19.3443 18.3447 19.2446C18.3601 19.2269 18.3762 19.2097 18.3929 19.1929L19.2929 18.2929Z" fill="black"/>
</svg>
